<svg id="Capa_1" enable-background="new 0 0 487 487" height="512" viewBox="0 0 487 487" width="512" xmlns="http://www.w3.org/2000/svg"><g><path d="m161.115 350.297 30.022-41.315-169.829 20.09c.453 4.93 1.448 9.887 3.042 14.795 11.601 35.705 49.951 55.245 85.656 43.644 21.378-6.946 38.887-20.288 51.109-37.214z" fill="#ffa6b8"/><path d="m100.737 358.98c21.377-6.946 40.25-16.09 54.781-25.909l35.62-24.088 52.362-72.058-79.374-60.824-53.918 17.519c-19.836-6.508-41.843-7.003-63.219-.058-35.705 11.601-55.245 49.951-43.644 85.656 3.827 11.78 10.579 21.785 19.174 29.508-1.408 6.592-1.844 13.444-1.21 20.347 15.866 26.732 48.623 39.916 79.428 29.907z" fill="#ffc7bd"/><path d="m110.218 193.606 48.57 15.786-71.587-155.309c-4.549 1.954-8.956 4.432-13.131 7.465-30.373 22.067-37.106 64.578-15.039 94.95 13.212 18.186 31.312 30.714 51.187 37.108z" fill="#ffa6b8"/><path d="m83.302 138.865c13.212 18.185 27.74 33.308 41.57 44.094l33.916 26.433 84.712 27.532 33.319-94.284-33.323-45.866c.059-20.876-6.27-41.96-19.481-60.143-22.067-30.373-64.578-37.106-94.95-15.039-10.02 7.28-17.45 16.793-22.138 27.354-6.704.698-13.356 2.4-19.725 5.137-20.523 23.351-22.938 58.578-3.9 84.782z" fill="#ffc7bd"/><path d="m243.512 96.779-.004 51.071 125.585-116.076c-3.264-3.723-6.983-7.148-11.158-10.181-30.372-22.067-72.883-15.334-94.95 15.039-13.212 18.184-19.534 39.269-19.473 60.147z" fill="#ffa6b8"/><path d="m287.256 54.265c-13.212 18.185-23.105 36.675-29.09 53.161l-14.658 40.424-.007 89.074 99.966 2.553 33.323-45.866c19.873-6.395 37.968-18.929 51.179-37.112 22.067-30.372 15.334-72.883-15.039-94.95-10.02-7.28-21.363-11.406-32.856-12.602-2.735-6.161-6.41-11.96-10.981-17.172-28.549-12.302-62.799-3.714-81.837 22.49z" fill="#ffc7bd"/><path d="m376.789 193.628-48.573 15.778 149.203 83.569c2.532-4.255 4.64-8.85 6.235-13.758 11.601-35.705-7.939-74.055-43.644-85.656-21.376-6.945-43.383-6.442-63.221.067z" fill="#ffa6b8"/><path d="m430.74 222.093c-21.377-6.946-42.02-10.641-59.548-11.239l-42.975-1.449-84.717 27.519 28.463 95.862 53.918 17.519c12.223 16.924 29.736 30.261 51.111 37.206 35.705 11.601 74.055-7.939 85.656-43.644 3.827-11.78 4.246-23.842 1.832-35.142 5.014-4.505 9.394-9.792 12.939-15.75 2.878-30.953-15.874-60.873-46.679-70.882z" fill="#ffc7bd"/><path d="m325.866 350.311-30.015-41.32-33.373 167.725c4.829 1.093 9.851 1.678 15.011 1.678 37.542 0 67.977-30.434 67.977-67.977-.001-22.477-7.28-43.251-19.6-60.106z" fill="#ffa6b8"/><path d="m315.465 410.417c0-22.477-2.864-43.252-7.713-60.107l-11.902-41.32-52.35-72.067-82.375 113.386c-12.319 16.854-19.591 37.631-19.591 60.107 0 37.542 30.434 67.977 67.977 67.977 12.386 0 23.988-3.329 33.989-9.117 5.834 3.376 12.216 5.908 18.977 7.438 30.328-6.827 52.988-33.907 52.988-66.297z" fill="#ffc7bd"/><path d="m236 274.599h15v75h-15z" fill="#ffba48"/><path d="m307.33 222.775h15v75h-15z" fill="#ffba48" transform="matrix(.309 -.951 .951 .309 -29.994 479.266)"/><path d="m250.084 168.923h75v15h-75z" fill="#ffba48" transform="matrix(.588 -.809 .809 .588 -24.186 305.376)"/><path d="m191.916 138.922h15v75h-15z" fill="#ffba48" transform="matrix(.809 -.588 .588 .809 -65.613 150.908)"/><path d="m134.67 252.775h75v15h-75z" fill="#ffba48" transform="matrix(.951 -.309 .309 .951 -71.996 65.933)"/><path d="m328.358 209.43c-14.833-11.691-36.997-15.584-58.364-8.798-.061-22.537-10.73-42.13-26.498-52.669-15.702 10.495-26.254 30.371-26.403 52.789-21.453-6.907-43.384-2.814-58.279 8.926 5.129 18.177 20.771 34.354 42.046 41.423-13.198 18.268-16.082 40.391-9.52 58.185 18.872.739 38.863-9.213 52.16-27.263 13.296 18.197 33.673 27.851 52.624 27.109 6.535-17.72 3.389-40.002-9.668-58.226 21.415-7.021 36.752-23.223 41.902-41.476z" fill="#ff64ad"/><circle cx="243.5" cy="237.098" fill="#ff4f6e" r="45"/><g fill="#ff9a42"><circle cx="243.5" cy="237.098" r="15"/><circle cx="243.5" cy="357.098" r="15"/><circle cx="357.627" cy="274.181" r="15"/><circle cx="314.034" cy="140.016" r="15"/><circle cx="172.966" cy="140.016" r="15"/><circle cx="129.373" cy="274.181" r="15"/></g></g></svg>